# AST/ASF file generated using VICON BodyLanguage
# -----------------------------------------------
:version 1.10
:name VICON
:units
  mass 1.0
  length 0.45
  angle deg
:documentation
   .ast/.asf automatically generated from VICON data using
   VICON BodyBuilder and BodyLanguage model FoxedUp or BRILLIANT.MOD
:root
   order TX TY TZ RX RY RZ
   axis XYZ
   position 0 0 0  
   orientation 0 0 0 
:bonedata
  begin
     id 1 
     name lhipjoint
     direction 0.558404 -0.748506 0.357664 
     length 2.4234 
     axis 0 0 0  XYZ
  end
  begin
     id 2 
     name lfemur
     direction 0.34202 -0.939693 0  
     length 7.14567  
     axis 0 0 20  XYZ
    dof rx ry rz
    limits (-160.0 20.0)
           (-70.0 70.0)
           (-60.0 70.0)
  end
  begin
     id 3 
     name ltibia
     direction 0.34202 -0.939693 0   
     length 8.13956   
     axis 0 0 20   XYZ
    dof rx
    limits (-10.0 170.0)
  end
  begin
     id 4 
     name lfoot
     direction 0.0791314 -0.217412 0.972867   
     length 2.00134   
     axis -90 7.62852e-016 20   XYZ
    dof rx rz
    limits (-45.0 90.0)
           (-70.0 20.0)
  end
  begin
     id 5 
     name ltoes
     direction 1.53547e-011 -4.21922e-011 1   
     length 1.00735   
     axis -90 7.62852e-016 20   XYZ
    dof rx
    limits (-90.0 20.0)
  end
  begin
     id 6 
     name rhipjoint
     direction -0.496392 -0.78327 0.374276   
     length 2.31584  
     axis 0 0 0  XYZ 
  end
  begin
     id 7 
     name rfemur
     direction -0.34202 -0.939693 0   
     length 7.47417   
     axis 0 0 -20   XYZ
    dof rx ry rz
    limits (-160.0 20.0)
           (-70.0 70.0)
           (-70.0 60.0)
  end
  begin
     id 8 
     name rtibia
     direction -0.34202 -0.939693 0   
     length 7.69071   
     axis 0 0 -20   XYZ
    dof rx
    limits (-10.0 170.0)
 end
 begin
     id 9 
     name rfoot
     direction -0.103069 -0.28318 0.953512   
     length 2.16135  
     axis -90 -7.62852e-016 -20   XYZ
    dof rx rz
    limits (-45.0 90.0)
           (-20.0 70.0)
  end
  begin
     id 10 
     name rtoes
     direction -1.53581e-011 -4.21904e-011 1   
     length 1.07867   
     axis -90 -7.62852e-016 -20   XYZ
    dof rx
    limits (-90.0 20.0)
  end
  begin
     id 11 
     name lowerback
     direction -0.0258961 0.994776 -0.0987407   
     length 2.19412   
     axis 0 0 0   XYZ
    dof rx ry rz
    limits (-20.0 45.0)
           (-30.0 30.0)
           (-30.0 30.0)
  end
  begin
     id 12 
     name upperback
     direction 0.0402454 0.999185 0.00320666   
     length 2.18445   
     axis 0 0 0   XYZ
    dof rx ry rz
    limits (-20.0 45.0)
           (-30.0 30.0)
           (-30.0 30.0)
  end
  begin
     id 13 
     name thorax
     direction 0.0519376 0.997415 0.0496558   
     length 2.21487   
     axis 0 0 0   XYZ
    dof rx ry rz
    limits (-20.0 45.0)
           (-30.0 30.0)
           (-30.0 30.0)
  end
  begin
     id 14 
     name lowerneck
     direction -0.0921276 0.983211 0.157506   
     length 1.61201   
     axis 0 0 0   XYZ
    dof rx ry rz
    limits (-20.0 45.0)
           (-30.0 30.0)
           (-30.0 30.0)
  end
  begin
     id 15 
     name upperneck
     direction 0.0820814 0.98162 -0.172292   
     length 1.65275   
     axis 0 0 0   XYZ
    dof rx ry rz
    limits (-20.0 45.0)
           (-30.0 30.0)
           (-30.0 30.0)
  end
  begin
     id 16
     name head
     direction 0.0336554 0.996413 -0.0776455  
     length 1.66415  
     axis 0 0 0   XYZ
    dof rx ry rz
    limits (-20.0 45.0)
           (-30.0 30.0)
           (-30.0 30.0)
  end
  begin
     id 17 
     name lclavicle
     direction 0.94696 0.284418 -0.149576  
     length 3.41447  
     axis 0 0 0   XYZ
    dof ry rz
    limits (-20.0 10.0)
           (0.0 20.0)
  end
  begin
     id 18 
     name lhumerus
     direction 1 -0.000130264 -9.81312e-005   
     length 5.19964   
     axis 180 -30 -90   XYZ
    dof rx ry rz
    limits (-60.0 90.0)
           (-90.0 90.0)
           (-90.0 90.0)
  end
  begin
     id 19
     name lradius
     direction 1 -4.48961e-011 1.43854e-026   
     length 3.32189   
     axis 180 -30 -90   XYZ
    dof rx
    limits (-10.0 170.0)
  end
  begin
     id 20
     name lwrist
     direction 1 -4.48958e-011 3.1502e-026   
     length 1.66095   
     axis -1.97692e-014 90 90   XYZ
    dof ry
    limits (-180.0 0.0)
 end
  begin
     id 21 
     name lhand
     direction 1 -4.48927e-011 6.3004e-026   
     length 0.645616   
     axis -4.02019e-014 90 90   XYZ
    dof rx rz
    limits (-90.0 90.0)
           (-45.0 45.0)
  end
  begin
     id 22 
     name lfingers
     direction 1 -4.4904e-011 1.26008e-025   
     length 0.520512   
     axis -8.04039e-014 90 90   XYZ
    dof rx
    limits (0.0 90.0)
  end
  begin
     id 23
     name lthumb
     direction 0.707107 -6.34947e-011 0.707107   
     length 0.747354   
     axis -90 45 2.85299e-015   XYZ
    dof rx rz
    limits (-45.0 45.0)
           (-45.0 45.0)
  end
  begin
     id 24 
     name rclavicle
     direction -0.909391 0.383475 -0.161107   
     length 3.25176  
     axis 0 0 0   XYZ 
    dof ry rz
    limits (-10.0 20.0)
           (-20.0 0.0)
  end
  begin
     id 25 
     name rhumerus
     direction -1 -4.48965e-011 -1.81384e-027  
     length 5.6595   
     axis 180 30 90   XYZ
    dof rx ry rz
    limits (-90.0 60.0)
           (-90.0 90.0)
           (-90.0 90.0)
  end
  begin
     id 26 
     name rradius
     direction -1 -4.48996e-011 -8.09397e-027   
     length 3.37604   
     axis 180 30 90   XYZ
    dof rx
    limits (-10.0 170.0)
  end
  begin
     id 27 
     name rwrist
     direction -1 -4.48927e-011 -1.56669e-026   
     length 1.68802   
     axis 1.21142e-014 -90 -90   XYZ
    dof ry
    limits (-180.0 0.0)
  end
  begin
     id 28
     name rhand
     direction -1 -4.48912e-011 -3.13339e-026   
     length 0.824702   
     axis 1.99937e-014 -90 -90   XYZ
    dof rx rz
    limits (-90.0 90.0)
           (-45.0 45.0)
  end
  begin
     id 29
     name rfingers
     direction -1 -4.49011e-011 -6.26677e-026   
     length 0.664896   
     axis 3.99874e-014 -90 -90   XYZ
    dof rx
    limits (0.0 90.0)
  end
  begin
     id 30
     name rthumb
     direction -0.707107 -6.34931e-011 0.707107   
     length 0.954662   
     axis -90 -45 -2.85299e-015   XYZ
    dof rx rz
    limits (-45.0 45.0)
           (-45.0 45.0)
  end
:hierarchy
  begin
    root lhipjoint rhipjoint lowerback
    lhipjoint lfemur
    lfemur ltibia
    ltibia lfoot
    lfoot ltoes
    rhipjoint rfemur
    rfemur rtibia
    rtibia rfoot
    rfoot rtoes
    lowerback upperback
    upperback thorax
    thorax lowerneck lclavicle rclavicle
    lowerneck upperneck
    upperneck head
    lclavicle lhumerus
    lhumerus lradius
    lradius lwrist
    lwrist lhand lthumb
    lhand lfingers
    rclavicle rhumerus
    rhumerus rradius
    rradius rwrist
    rwrist rhand rthumb
    rhand rfingers
  end

#!OML:ASF F:\VICON\USERDATA\INSTALL\rory3\rory3.ASF
:FULLY-SPECIFIED
:DEGREES
130
root 10.7147 17.7813 -18.327 8.09088 -42.4611 -6.11765
lowerback 5.41361 -0.24857 -1.77707
upperback -1.08726 -0.295518 4.68827
thorax -4.13927 -0.055826 5.92554
lowerneck -14.2101 2.25972 -8.94839
upperneck 21.7179 3.06924 9.15547
head 8.80114 1.65866 4.99836
rclavicle -7.64327e-014 4.69132e-014
rhumerus -37.8963 -18.3977 -68.1515
rradius 35.9873
rwrist -17.7503
rhand -11.0443 16.552
rfingers 7.12502
rthumb 14.9778 -12.8863
lclavicle -7.64327e-014 4.69132e-014
lhumerus -31.3753 20.2346 79.7797
lradius 26.2712
lwrist -10.4107
lhand -0.0907635 33.0883
lfingers 7.12502
lthumb 25.5034 61.4016
rfemur -19.2704 7.13246 20.1793
rtibia 39.3915
rfoot -19.0649 -8.02759
rtoes 11.9695
lfemur -14.7256 1.14772 -19.6372
ltibia 37.3942
lfoot -24.2853 13.7044
ltoes 8.56867
131
root 10.7196 17.7821 -18.3238 8.06779 -42.5098 -5.91788
lowerback 5.38297 -0.29631 -2.01847
upperback -1.12612 -0.372984 4.75342
thorax -4.15244 -0.0867002 6.14102
lowerneck -14.0778 2.34386 -9.10005
upperneck 21.7309 3.19324 9.23002
head 8.76283 1.71001 5.05868
rclavicle 6.33626e-014 1.19271e-014
rhumerus -37.9017 -18.2146 -68.0605
rradius 35.9287
rwrist -17.4218
rhand -11.0917 16.6413
rfingers 7.12502
rthumb 14.9322 -12.8004
lclavicle 6.33626e-014 1.19271e-014
lhumerus -31.4562 20.4282 79.8391
lradius 26.2758
lwrist -10.6333
lhand -0.536298 32.7692
lfingers 7.12502
lthumb 25.0766 61.1428
rfemur -19.4139 7.01629 19.9572
rtibia 39.4155
rfoot -19.075 -7.81141
rtoes 12.4719
lfemur -14.8606 1.53486 -19.8026
ltibia 37.3946
lfoot -24.2275 13.3558
ltoes 8.65464
132
root 10.7223 17.7809 -18.3211 8.00356 -42.6075 -5.73041
lowerback 5.33608 -0.268319 -2.21619
upperback -1.11711 -0.348615 4.76928
thorax -4.11878 -0.0702166 6.26876
lowerneck -14.0066 2.4265 -9.1031
upperneck 21.6968 3.29821 9.25734
head 8.72588 1.76174 5.07516
rclavicle -2.18663e-015 4.77083e-015
rhumerus -37.9431 -18.207 -67.9576
rradius 35.8582
rwrist -17.1957
rhand -11.133 16.819
rfingers 7.12502
rthumb 14.8924 -12.6257
lclavicle -2.18663e-015 4.77083e-015
lhumerus -31.3717 20.5043 79.8759
lradius 26.3456
lwrist -11.0655
lhand -0.15915 33.0046
lfingers 7.12502
lthumb 25.4379 61.3272
rfemur -19.5066 6.95022 19.7479
rtibia 39.4379
rfoot -19.1007 -7.63216
rtoes 12.8874
lfemur -14.9412 1.80178 -19.9769
ltibia 37.4164
lfoot -24.2556 13.188
ltoes 8.86423
133
root 10.7253 17.7797 -18.3204 8.13509 -42.7289 -5.90368
lowerback 5.3034 -0.223813 -2.1091
upperback -1.06695 -0.282088 4.82432
thorax -4.05647 -0.041865 6.25846
lowerneck -13.8358 2.53727 -9.11293
upperneck 21.5397 3.43408 9.31472
head 8.62435 1.83153 5.09735
rclavicle 2.68359e-015 8.74653e-015
rhumerus -37.9064 -18.8179 -67.6763
rradius 35.5564
rwrist -16.5513
rhand -10.8657 17.0252
rfingers 7.12502
rthumb 15.1499 -12.4003
lclavicle 2.68359e-015 8.74653e-015
lhumerus -31.2235 20.5971 79.8557
lradius 26.4497
lwrist -11.3697
lhand 0.325994 33.2456
lfingers 7.12502
lthumb 25.9026 61.5011
rfemur -19.5538 7.08082 19.8551
rtibia 39.458
rfoot -19.072 -7.68626
rtoes 12.5838
lfemur -14.9726 2.12517 -19.8584
ltibia 37.4426
lfoot -24.1698 13.1612
ltoes 8.17618
134
root 10.7298 17.7807 -18.3235 8.27347 -42.7573 -6.05377
lowerback 5.35613 -0.183379 -2.02906
upperback -1.07959 -0.220318 4.89218
thorax -4.10738 -0.0110975 6.28076
lowerneck -13.5445 2.56855 -9.23963
upperneck 21.4088 3.48036 9.34292
head 8.51766 1.84367 5.11774
rclavicle -3.34952e-014 -2.62396e-014
rhumerus -37.9532 -19.3585 -67.3023
rradius 35.2798
rwrist -16.1699
rhand -10.6019 17.1252
rfingers 7.12502
rthumb 15.404 -12.2809
lclavicle -3.34952e-014 -2.62396e-014
lhumerus -31.1599 20.5195 79.9402
lradius 26.4979
lwrist -11.3563
lhand 0.316362 33.1905
lfingers 7.12502
lthumb 25.8934 61.4473
rfemur -19.6232 7.24676 19.9704
rtibia 39.4645
rfoot -19.0193 -7.82611
rtoes 12.0585
lfemur -15.048 2.25412 -19.7376
ltibia 37.4674
lfoot -24.0624 13.1686
ltoes 7.10553
